<?xml version="1.0" encoding="UTF-8"?>
<!-- Generator: https://ezgif.com/png-to-svg -->
<svg version="1.1" xmlns="http://www.w3.org/2000/svg" width="1484" height="399">
<path d="M0 0 C489.72 0 979.44 0 1484 0 C1484 131.67 1484 263.34 1484 399 C994.28 399 504.56 399 0 399 C0 267.33 0 135.66 0 0 Z " fill="#0608F7" transform="translate(0,0)"/>
<path d="M0 0 C489.72 0 979.44 0 1484 0 C1484 131.67 1484 263.34 1484 399 C994.28 399 504.56 399 0 399 C0 267.33 0 135.66 0 0 Z M157.44 24.62 C156.39 24.89 155.35 25.15 154.28 25.41 C130.62 31.57 108.02 42.63 89 58 C88.44 58.45 87.88 58.9 87.3 59.36 C57.37 83.43 35.45 115.61 26 153 C25.65 154.21 25.3 155.43 24.95 156.68 C12.53 200.84 21.9 248.18 43 288 C45.15 291.82 47.45 295.44 50 299 C50.66 299.93 51.33 300.87 52.01 301.83 C57.91 309.91 64.33 317.54 71 325 C71.72 325.8 72.43 326.6 73.17 327.43 C92.87 348.23 121.46 364.47 149 372 C149.79 372.22 150.57 372.43 151.38 372.66 C179.46 380.16 208.21 379.29 237.03 379.26 C242.61 379.25 248.19 379.26 253.78 379.26 C263.54 379.27 273.31 379.27 283.07 379.27 C293.54 379.26 304.01 379.26 314.47 379.26 C315.14 379.26 315.8 379.26 316.48 379.26 C319.19 379.26 321.89 379.27 324.6 379.27 C349.72 379.28 374.84 379.28 399.96 379.27 C400.7 379.27 401.44 379.27 402.21 379.27 C402.95 379.27 403.7 379.27 404.46 379.27 C427.17 379.27 449.87 379.27 472.57 379.27 C474.09 379.27 475.61 379.27 477.14 379.27 C483.25 379.27 489.37 379.27 495.49 379.27 C512.6 379.27 529.7 379.27 546.8 379.27 C547.58 379.27 548.36 379.27 549.16 379.27 C573.96 379.27 598.76 379.27 623.56 379.27 C624.36 379.27 625.16 379.27 625.99 379.27 C639.04 379.27 652.1 379.26 665.15 379.26 C716.91 379.25 768.67 379.25 820.44 379.26 C833.48 379.26 846.53 379.27 859.58 379.27 C860.38 379.27 861.18 379.27 862.01 379.27 C886.79 379.27 911.56 379.27 936.33 379.27 C937.11 379.27 937.89 379.27 938.69 379.27 C955.78 379.27 972.86 379.27 989.94 379.27 C996.06 379.27 1002.17 379.27 1008.28 379.27 C1009.8 379.27 1011.32 379.27 1012.85 379.27 C1035.54 379.27 1058.23 379.27 1080.93 379.27 C1082.04 379.27 1082.04 379.27 1083.18 379.27 C1083.92 379.27 1084.66 379.27 1085.42 379.27 C1110.47 379.28 1135.52 379.28 1160.58 379.27 C1163.27 379.26 1165.96 379.26 1168.66 379.26 C1169.32 379.26 1169.98 379.26 1170.66 379.26 C1181.73 379.26 1192.8 379.26 1203.87 379.27 C1213.51 379.27 1223.16 379.27 1232.81 379.26 C1238.3 379.26 1243.79 379.25 1249.28 379.26 C1306.18 379.33 1357.38 373.28 1402 334 C1403.49 332.71 1403.49 332.71 1405.02 331.39 C1411.75 325.45 1417.48 319.11 1423 312 C1424.42 310.27 1425.83 308.54 1427.25 306.81 C1433.21 300.09 1433.21 300.09 1436 292 C1436.66 292 1437.32 292 1438 292 C1438.66 289.69 1439.32 287.38 1440 285 C1440.66 285 1441.32 285 1442 285 C1451.36 265.13 1458.78 245.82 1462 224 C1462.1 223.32 1462.21 222.63 1462.31 221.93 C1463.28 214.55 1463.24 207.12 1463.25 199.69 C1463.25 198.98 1463.25 198.27 1463.25 197.54 C1463.23 185.8 1462.52 174.49 1460 163 C1459.83 162.22 1459.67 161.45 1459.5 160.65 C1449.58 115.85 1421.14 74.47 1382.4 49.65 C1348.67 28.68 1312.87 19.82 1273.39 19.87 C1271.5 19.87 1269.62 19.87 1267.73 19.87 C1262.55 19.86 1257.37 19.86 1252.19 19.87 C1246.56 19.87 1240.92 19.86 1235.29 19.86 C1225.41 19.85 1215.54 19.85 1205.66 19.85 C1195.07 19.85 1184.47 19.85 1173.88 19.85 C1173.21 19.85 1172.54 19.85 1171.85 19.85 C1169.12 19.85 1166.39 19.85 1163.67 19.85 C1135.22 19.84 1106.78 19.83 1078.33 19.83 C1075.27 19.83 1072.21 19.83 1069.15 19.83 C1068.39 19.83 1067.63 19.83 1066.85 19.83 C1050.01 19.83 1033.17 19.83 1016.33 19.83 C1009.39 19.83 1002.46 19.83 995.52 19.82 C994.75 19.82 993.99 19.82 993.2 19.82 C949.28 19.82 905.36 19.81 861.44 19.81 C859.8 19.81 858.16 19.81 856.52 19.81 C849.1 19.81 841.68 19.81 834.26 19.81 C830.95 19.81 827.64 19.81 824.33 19.81 C822.68 19.81 821.02 19.81 819.37 19.81 C767.02 19.82 714.67 19.81 662.32 19.79 C649.14 19.79 635.95 19.79 622.76 19.78 C621.54 19.78 621.54 19.78 620.3 19.78 C595.26 19.78 570.23 19.77 545.19 19.77 C544.4 19.77 543.62 19.77 542.81 19.77 C525.54 19.77 508.28 19.77 491.02 19.77 C484.84 19.77 478.66 19.77 472.48 19.77 C470.95 19.77 469.41 19.77 467.87 19.77 C443.41 19.77 418.95 19.77 394.48 19.76 C369.83 19.75 345.18 19.75 320.54 19.75 C317.13 19.75 313.71 19.75 310.3 19.76 C309.64 19.76 308.97 19.76 308.28 19.76 C297.08 19.76 285.88 19.75 274.68 19.75 C264.92 19.74 255.16 19.74 245.4 19.75 C239.85 19.75 234.29 19.75 228.74 19.74 C223.67 19.74 218.61 19.74 213.54 19.75 C211.73 19.75 209.92 19.75 208.11 19.74 C191.13 19.7 173.96 20.42 157.44 24.62 Z " fill="#FEFEFE" transform="translate(0,0)"/>
<path d="M0 0 C0.68 0.64 1.36 1.29 2.05 1.95 C2.05 2.61 2.05 3.27 2.05 3.95 C2.71 3.95 3.37 3.95 4.05 3.95 C19.13 21.21 23.4 42.74 22.05 64.95 C21.45 69.13 20.38 72.95 19.05 76.95 C18.76 78.03 18.47 79.12 18.16 80.23 C12.56 98.83 -1.77 113.34 -18.57 122.36 C-38.68 132.15 -64.51 134.67 -85.95 127.95 C-87.04 127.61 -88.13 127.27 -89.25 126.92 C-108.83 120.1 -122.28 105.8 -131.82 87.83 C-140.79 68.8 -140.2 44.58 -133.26 25.02 C-125.15 6.05 -109.9 -8.2 -90.95 -16.05 C-87.65 -17.27 -84.36 -18.22 -80.95 -19.05 C-80.11 -19.25 -79.28 -19.46 -78.42 -19.67 C-49.93 -25.55 -22.33 -18.19 0 0 Z " fill="#FCFCFE" transform="translate(489.9453125,151.046875)"/>
<path d="M0 0 C9.29 7.9 14.29 17.24 15.37 29.25 C15.97 38.73 16.22 48.18 16.26 57.68 C16.27 60.21 16.29 62.74 16.31 65.27 C16.38 72.45 16.43 79.63 16.46 86.81 C16.49 91.24 16.52 95.66 16.56 100.09 C16.58 101.75 16.59 103.42 16.59 105.09 C16.6 107.43 16.62 109.77 16.65 112.11 C16.64 112.77 16.64 113.43 16.64 114.11 C16.76 121.72 18.5 128.01 20.06 135.81 C1.91 135.81 -16.24 135.81 -34.94 135.81 C-35.7 131.25 -36.05 127.5 -36 122.94 C-35.99 121.79 -35.98 120.63 -35.97 119.45 C-35.96 118.58 -35.95 117.71 -35.94 116.81 C-36.9 117.8 -36.9 117.8 -37.88 118.81 C-38.89 119.82 -39.91 120.82 -40.94 121.81 C-41.88 122.75 -41.88 122.75 -42.85 123.71 C-54.61 134.85 -68.62 139.29 -84.57 139.1 C-99.03 138.68 -112.26 136.21 -122.94 125.81 C-132.34 114.59 -136.02 103.37 -134.94 88.81 C-133.26 78.96 -129.9 71.96 -122.94 64.81 C-122.34 64.18 -121.75 63.54 -121.13 62.89 C-111.79 53.82 -99.25 49.93 -86.94 46.81 C-85.89 46.49 -84.85 46.17 -83.78 45.83 C-73.72 43.16 -63.54 42.35 -53.19 41.69 C-51.91 41.6 -50.62 41.51 -49.3 41.43 C-46.18 41.22 -43.06 41.01 -39.94 40.81 C-40.05 39.04 -40.17 37.27 -40.3 35.5 C-40.37 34.52 -40.44 33.53 -40.51 32.52 C-40.77 29.56 -40.77 29.56 -43.12 26.75 C-49.58 22.31 -56.28 21.96 -63.94 22.81 C-66.25 23.63 -68.21 24.58 -70.32 25.84 C-71.94 26.81 -71.94 26.81 -74.94 27.81 C-75.96 30.14 -75.96 30.14 -76.62 32.88 C-77 34.25 -77 34.25 -77.39 35.66 C-77.57 36.37 -77.75 37.08 -77.94 37.81 C-84.09 37.89 -90.06 37.62 -96.17 36.97 C-97.01 36.89 -97.85 36.8 -98.72 36.71 C-100.48 36.53 -102.24 36.34 -104 36.16 C-106.69 35.87 -109.38 35.6 -112.07 35.32 C-113.79 35.14 -115.51 34.96 -117.23 34.79 C-118.43 34.66 -118.43 34.66 -119.66 34.54 C-123.47 34.13 -127.19 33.65 -130.94 32.81 C-128.32 18.3 -120.32 7.71 -108.46 -1.01 C-79.8 -19.11 -28.27 -20.06 0 0 Z " fill="#FCFCFE" transform="translate(1275.9375,143.1875)"/>
<path d="M0 0 C1.46 1.21 2.89 2.44 4.31 3.69 C5.06 4.34 5.81 5 6.59 5.68 C16.65 15.07 22.49 26.58 26.31 39.69 C26.68 40.95 26.68 40.95 27.06 42.24 C29.37 52.23 28.31 62.48 28.31 72.69 C-3.7 72.69 -35.71 72.69 -68.69 72.69 C-67.75 84.83 -67.75 84.83 -61.69 94.69 C-56.7 97.32 -52.42 98.24 -46.75 98.19 C-46.05 98.18 -45.35 98.18 -44.62 98.17 C-38.83 97.97 -34.71 96.93 -30.69 92.69 C-28.12 89.3 -26.62 85.82 -25.69 81.69 C-14 81.42 -2.41 81.84 9.25 82.62 C10.25 82.69 10.25 82.69 11.27 82.76 C23.43 83.56 23.43 83.56 27.31 84.69 C27.52 96.43 19.3 107.45 11.47 115.7 C-8.24 133.87 -32 137.67 -57.84 136.84 C-79.79 135.67 -97.72 126.13 -112.81 110.49 C-125.94 95.42 -131.13 75.6 -129.9 55.91 C-127.97 35.95 -119.71 17.4 -105.01 3.56 C-97.05 -2.86 -88.42 -8.1 -78.69 -11.31 C-77.72 -11.65 -76.76 -11.99 -75.76 -12.34 C-51.15 -20.13 -20.64 -15.48 0 0 Z " fill="#FCFCFE" transform="translate(878.6875,145.3125)"/>
<path d="M0 0 C45.87 0 91.74 0 139 0 C139 15.51 139 31.02 139 47 C138.67 47.33 138.34 47.66 138 48 C124.8 48 111.6 48 98 48 C98 96.84 98 145.68 98 196 C78.86 196 59.72 196 40 196 C40 147.16 40 98.32 40 48 C26.8 48 13.6 48 0 48 C0 32.16 0 16.32 0 0 Z " fill="#FAFAFE" transform="translate(218,83)"/>
<path d="M0 0 C0.96 0 1.91 0 2.9 0.01 C3.98 0.01 5.06 0.01 6.18 0.01 C7.94 0.01 7.94 0.01 9.74 0.02 C10.94 0.02 12.13 0.03 13.37 0.03 C17.21 0.03 21.05 0.05 24.89 0.06 C27.49 0.06 30.09 0.07 32.68 0.07 C39.07 0.08 45.45 0.1 51.83 0.12 C51.83 15.96 51.83 31.8 51.83 48.12 C61.4 48.12 70.97 48.12 80.83 48.12 C80.83 60.33 80.83 72.54 80.83 85.12 C71.26 85.12 61.69 85.12 51.83 85.12 C51.9 92.83 51.97 100.54 52.07 108.26 C52.11 111.85 52.15 115.44 52.18 119.03 C52.2 122.5 52.24 125.96 52.29 129.42 C52.32 131.38 52.33 133.34 52.34 135.29 C52.36 136.49 52.38 137.69 52.4 138.93 C52.41 139.98 52.42 141.04 52.43 142.12 C52.9 145.64 54.03 148.07 55.83 151.12 C62.36 155.8 73.86 152.75 80.83 152.12 C80.83 165.65 80.83 179.18 80.83 193.12 C58.42 197.2 30.88 200.57 10.83 187.12 C2.2 179.87 -1.86 170.14 -3.17 159.12 C-3.25 156.59 -3.29 154.06 -3.28 151.53 C-3.28 150.81 -3.28 150.09 -3.28 149.34 C-3.28 146.98 -3.28 144.61 -3.27 142.25 C-3.27 140.6 -3.26 138.95 -3.26 137.3 C-3.26 132.98 -3.25 128.66 -3.24 124.34 C-3.23 119.92 -3.22 115.5 -3.22 111.08 C-3.21 102.43 -3.19 93.77 -3.17 85.12 C-10.43 85.12 -17.69 85.12 -25.17 85.12 C-25.17 72.91 -25.17 60.7 -25.17 48.12 C-17.91 48.12 -10.65 48.12 -3.17 48.12 C-3.18 44.74 -3.19 41.36 -3.21 37.87 C-3.21 34.61 -3.22 31.35 -3.23 28.09 C-3.23 25.82 -3.24 23.55 -3.25 21.28 C-3.26 18.02 -3.26 14.76 -3.27 11.5 C-3.27 10.48 -3.28 9.45 -3.28 8.4 C-3.28 6.99 -3.28 6.99 -3.28 5.55 C-3.29 4.72 -3.29 3.88 -3.29 3.02 C-3.12 0.27 -2.76 0.15 0 0 Z " fill="#FCFCFE" transform="translate(938.1703033447266,84.87974548339844)"/>
<path d="M0 0 C0.96 0 1.91 0 2.9 0.01 C3.98 0.01 5.06 0.01 6.18 0.01 C7.94 0.01 7.94 0.01 9.74 0.02 C10.94 0.02 12.13 0.03 13.37 0.03 C17.21 0.03 21.05 0.05 24.89 0.06 C27.49 0.06 30.09 0.07 32.68 0.07 C39.07 0.08 45.45 0.1 51.83 0.12 C51.83 15.96 51.83 31.8 51.83 48.12 C61.4 48.12 70.97 48.12 80.83 48.12 C80.83 60.33 80.83 72.54 80.83 85.12 C71.26 85.12 61.69 85.12 51.83 85.12 C51.92 92.69 52.01 100.25 52.12 107.81 C52.17 111.34 52.21 114.86 52.25 118.38 C52.3 122.43 52.36 126.48 52.42 130.53 C52.43 131.78 52.44 133.04 52.45 134.33 C52.57 142.92 52.57 142.92 54.83 151.12 C58.31 153.31 61.54 153.37 65.58 153.31 C66.54 153.3 67.51 153.29 68.5 153.29 C72.62 153.08 76.73 152.58 80.83 152.12 C80.83 165.65 80.83 179.18 80.83 193.12 C73.9 194.11 73.9 194.11 66.83 195.12 C65.43 195.32 64.03 195.52 62.58 195.73 C45.12 197.55 25.85 197.27 10.83 187.12 C2.86 180.05 -1.73 171.67 -3.17 161.12 C-3.44 155.28 -3.4 149.46 -3.37 143.62 C-3.36 141.93 -3.36 140.23 -3.36 138.54 C-3.35 134.12 -3.33 129.7 -3.31 125.27 C-3.29 120.75 -3.28 116.22 -3.27 111.7 C-3.25 102.84 -3.21 93.98 -3.17 85.12 C-10.43 85.12 -17.69 85.12 -25.17 85.12 C-25.17 72.91 -25.17 60.7 -25.17 48.12 C-17.91 48.12 -10.65 48.12 -3.17 48.12 C-3.18 44.74 -3.19 41.36 -3.21 37.87 C-3.21 34.61 -3.22 31.35 -3.23 28.09 C-3.23 25.82 -3.24 23.55 -3.25 21.28 C-3.26 18.02 -3.26 14.76 -3.27 11.5 C-3.27 10.48 -3.28 9.45 -3.28 8.4 C-3.28 6.99 -3.28 6.99 -3.28 5.55 C-3.29 4.72 -3.29 3.88 -3.29 3.02 C-3.12 0.27 -2.76 0.15 0 0 Z " fill="#FCFCFE" transform="translate(1047.1703033447266,84.87974548339844)"/>
<path d="M0 0 C1 1 1 1 1.12 3.02 C1.12 3.9 1.12 4.79 1.11 5.7 C1.11 7.2 1.11 7.2 1.11 8.74 C1.11 9.83 1.1 10.91 1.1 12.04 C1.1 13.14 1.09 14.25 1.09 15.39 C1.09 18.95 1.08 22.51 1.06 26.06 C1.06 28.47 1.05 30.87 1.05 33.28 C1.04 39.18 1.02 45.09 1 51 C-0.28 51.04 -1.56 51.07 -2.88 51.11 C-4.58 51.18 -6.29 51.25 -8 51.31 C-9.26 51.35 -9.26 51.35 -10.54 51.38 C-18.26 51.71 -25.41 53.25 -31 59 C-34.97 65.5 -36.14 71.03 -36.21 78.61 C-36.22 79.38 -36.23 80.14 -36.24 80.92 C-36.27 83.43 -36.29 85.94 -36.32 88.45 C-36.34 90.2 -36.36 91.94 -36.38 93.68 C-36.43 98.27 -36.48 102.85 -36.53 107.43 C-36.59 112.93 -36.66 118.44 -36.72 123.94 C-36.82 132.29 -36.91 140.65 -37 149 C-55.48 149 -73.96 149 -93 149 C-93 100.82 -93 52.64 -93 3 C-76.83 3 -60.66 3 -44 3 C-43.67 10.26 -43.34 17.52 -43 25 C-42.3 23.49 -41.6 21.99 -40.88 20.44 C-36.1 11.01 -29.88 4.94 -19.81 1.18 C-13.39 -0.5 -6.59 -0.42 0 0 Z " fill="#FDFDFE" transform="translate(626,130)"/>
<path d="M0 0 C0 16.83 0 33.66 0 51 C-5.61 51 -11.22 51 -17 51 C-25.18 53.49 -30.6 56.07 -34.75 63.75 C-38.07 70.27 -38.12 77.33 -38.21 84.52 C-38.22 85.22 -38.23 85.92 -38.24 86.65 C-38.27 88.94 -38.29 91.24 -38.32 93.53 C-38.34 95.13 -38.36 96.74 -38.38 98.34 C-38.43 102.54 -38.48 106.73 -38.53 110.93 C-38.59 115.97 -38.66 121.02 -38.72 126.06 C-38.82 133.71 -38.91 141.35 -39 149 C-57.15 149 -75.3 149 -94 149 C-94 100.82 -94 52.64 -94 3 C-78.16 3 -62.32 3 -46 3 C-46 10.92 -46 18.84 -46 27 C-45.34 27 -44.68 27 -44 27 C-43.86 26.45 -43.73 25.91 -43.59 25.35 C-40.92 16 -35.62 9.24 -27.29 4.22 C-17.88 -0.78 -11.7 0 0 0 Z " fill="#FDFDFE" transform="translate(739,130)"/>
<path d="M0 0 C0.33 0 0.66 0 1 0 C1 59.73 1 119.46 1 181 C-58.07 181 -117.14 181 -178 181 C-178 180.67 -178 180.34 -178 180 C-177.39 179.92 -176.79 179.83 -176.16 179.74 C-130.24 173.17 -89.86 154.01 -57 121 C-56.23 120.27 -55.47 119.54 -54.68 118.78 C-43.39 107.88 -34.96 95.43 -27 82 C-26.58 81.29 -26.15 80.58 -25.72 79.85 C-10.75 54.62 -4.16 28.83 0 0 Z " fill="#E1E8E9" transform="translate(1483,218)"/>
<path d="M0 0 C58.41 0 116.82 0 177 0 C177 59.73 177 119.46 177 181 C176.67 181 176.34 181 176 181 C175.89 179.7 175.89 179.7 175.77 178.38 C171.78 140.09 155.84 95.54 127.32 68.41 C126 67 126 67 126 65 C125.34 65 124.68 65 124 65 C122.66 63.6 122.66 63.6 121.06 61.62 C108.85 47.33 93.14 36.41 77 27 C75.93 26.37 75.93 26.37 74.84 25.73 C51.69 12.38 26.29 4.97 0 1 C0 0.67 0 0.34 0 0 Z " fill="#E1E8E9" transform="translate(1307,0)"/>
<path d="M0 0 C1.62 3.23 2.3 4.9 2.82 8.28 C2.96 9.11 3.1 9.94 3.24 10.8 C3.39 11.69 3.54 12.58 3.69 13.5 C5.49 23.65 8.46 33.03 12.12 42.65 C12.98 44.94 13.8 47.23 14.61 49.53 C16.83 55.73 19.11 61.42 22.7 66.96 C23.97 68.96 25.16 70.98 26.32 73.04 C33.36 85.42 41.25 96.25 50.93 106.74 C52.8 108.78 54.59 110.88 56.38 113 C69.51 127.92 86.69 139.44 104 149 C104.61 149.34 105.22 149.68 105.85 150.03 C128.77 162.56 154.04 169.72 180 172 C180 172.33 180 172.66 180 173 C120.6 173 61.2 173 0 173 C0 115.91 0 58.82 0 0 Z " fill="#E1E8E9" transform="translate(0,226)"/>
<path d="M0 0 C58.08 0 116.16 0 176 0 C176 0.33 176 0.66 176 1 C174.87 1.15 173.74 1.29 172.58 1.45 C128.04 7.64 89.2 27.93 57 59 C55.95 59.96 55.95 59.96 54.88 60.93 C24.12 89.71 8.62 131.71 1 172 C0.67 172 0.34 172 0 172 C0 115.24 0 58.48 0 0 Z " fill="#E1E8E9" transform="translate(0,0)"/>
<path d="M0 0 C4.7 2.07 8.8 4.69 10.94 9.5 C11.29 10.66 11.64 11.81 12 13 C12.35 13.89 12.69 14.77 13.05 15.69 C14.21 19.73 14.29 23.33 14.27 27.51 C14.27 28.73 14.27 28.73 14.27 29.96 C14.27 31.67 14.27 33.38 14.26 35.08 C14.25 37.66 14.26 40.24 14.27 42.82 C14.3 66.89 14.3 66.89 8 76 C2.91 80.73 -0.44 81.36 -7.24 81.27 C-11.17 80.88 -13.15 79.71 -16 77 C-23.17 67.16 -23.49 54.98 -23.39 43.23 C-23.38 41 -23.39 38.78 -23.41 36.55 C-23.42 26.17 -22.89 14.94 -17 6 C-11.69 0.77 -7.41 -1.19 0 0 Z " fill="#090BF7" transform="translate(436,166)"/>
<path d="M0 0 C5.92 3.65 9.83 9.48 12 16 C12.75 24.96 13.03 32.82 7 40 C0.75 46.85 -5.63 50.89 -15 51.38 C-21.95 51.07 -28.71 48.47 -34 44 C-41.03 35.01 -43.2 27.45 -42 16 C-39.61 7.99 -34.95 3 -27.94 -1.25 C-18.52 -6.1 -9.14 -4.91 0 0 Z " fill="#0E10F7" transform="translate(1315,71)"/>
<path d="M0 0 C0.33 9.7 0.42 22.08 -6 30 C-11.31 34.28 -16.1 36.15 -22.94 36.19 C-23.98 36.2 -25.02 36.22 -26.09 36.23 C-29.02 36 -30.58 35.62 -33 34 C-36.77 28.77 -37.71 25.41 -37 19 C-34.7 12.25 -29.45 8.19 -23.38 4.81 C-16.12 1.43 -7.98 -0.24 0 0 Z " fill="#0C0EF7" transform="translate(1237,211)"/>
<path d="M0 0 C3.94 2.69 6.27 4.99 8.07 9.45 C8.75 13.2 8.75 13.2 8.75 22.2 C-4.45 22.2 -17.65 22.2 -31.25 22.2 C-31.25 12.88 -30.34 7.29 -23.75 0.7 C-16.03 -3.93 -7.96 -4.6 0 0 Z " fill="#1113F7" transform="translate(840.24609375,166.8046875)"/>
<path d="M0 0 C5.92 3.65 9.83 9.48 12 16 C12.75 24.96 13.03 32.82 7 40 C0.75 46.85 -5.63 50.89 -15 51.38 C-21.95 51.07 -28.71 48.47 -34 44 C-41.03 35.01 -43.2 27.45 -42 16 C-39.61 7.99 -34.95 3 -27.94 -1.25 C-18.52 -6.1 -9.14 -4.91 0 0 Z M-34.77 11.16 C-38.82 17.23 -39.1 23.93 -38 31 C-34.39 38.03 -28.45 43.41 -21 46 C-13.07 47.16 -6.49 45.73 0 41 C5.08 35.78 8.02 30.49 8.38 23.19 C8.21 16.91 6.43 12.62 2.16 8.02 C-4.41 1.91 -10.12 0.45 -19.03 0.62 C-26.02 1.51 -30.39 5.97 -34.77 11.16 Z " fill="#E9E9FE" transform="translate(1315,71)"/>
<path d="M0 0 C4.55 -0.15 4.55 -0.15 9.19 -0.31 C10.13 -0.36 11.08 -0.4 12.06 -0.45 C16.5 -0.52 18.42 -0.44 22.08 2.33 C24 5 24 5 24.56 8.06 C23.88 11.61 22.84 12.83 20 15 C19.34 15 18.68 15 18 15 C18.58 15.85 19.15 16.71 19.75 17.59 C20.5 18.71 21.25 19.82 22 20.94 C22.38 21.5 22.76 22.07 23.16 22.65 C26 26.89 26 26.89 26 28 C21.77 28.88 21.77 28.88 19 28 C16.68 25.58 14.8 23.04 12.89 20.29 C11.04 17.59 11.04 17.59 7 17 C7 20.63 7 24.26 7 28 C4.69 28 2.38 28 0 28 C0 18.76 0 9.52 0 0 Z " fill="#E9E9FE" transform="translate(1289,82)"/>
<path d="M0 0 C16.17 0 32.34 0 49 0 C49.19 4.25 49.37 8.5 49.56 12.88 C49.62 14.21 49.69 15.55 49.75 16.93 C49.79 17.98 49.83 19.03 49.88 20.12 C49.93 21.2 49.97 22.27 50.02 23.39 C50 26 50 26 49 28 C48.34 28 47.68 28 47 28 C47 19.09 47 10.18 47 1 C31.82 1 16.64 1 1 1 C1 48.85 1 96.7 1 146 C0.67 146 0.34 146 0 146 C0 97.82 0 49.64 0 0 Z " fill="#ADAEFC" transform="translate(533,133)"/>
<path d="M0 0 C15.84 0 31.68 0 48 0 C48 7.92 48 15.84 48 24 C48.66 24 49.32 24 50 24 C49.5 26.47 49.5 26.47 49 29 C48.34 28.67 47.68 28.34 47 28 C47 19.09 47 10.18 47 1 C31.82 1 16.64 1 1 1 C1 48.85 1 96.7 1 146 C0.67 146 0.34 146 0 146 C0 97.82 0 49.64 0 0 Z " fill="#C9CAFD" transform="translate(645,133)"/>
<path d="M0 0 C1.44 -0.05 2.87 -0.09 4.31 -0.12 C5.11 -0.15 5.91 -0.17 6.74 -0.2 C9 0 9 0 12 2 C11.62 3.94 11.62 3.94 11 6 C8.59 7.2 7.05 7.1 4.38 7.06 C3.15 7.05 3.15 7.05 1.9 7.04 C0.96 7.02 0.96 7.02 0 7 C0 4.69 0 2.38 0 0 Z " fill="#2123F8" transform="translate(1295,87)"/>
</svg>
