<?xml version="1.0" encoding="UTF-8"?>
<!-- Generator: https://ezgif.com/png-to-svg -->
<svg version="1.1" xmlns="http://www.w3.org/2000/svg" width="1259" height="719">
<path d="M0 0 C415.47 0 830.94 0 1259 0 C1259 237.27 1259 474.54 1259 719 C843.53 719 428.06 719 0 719 C0 481.73 0 244.46 0 0 Z " fill="#E1E8E9" transform="translate(0,0)"/>
<path d="M0 0 C12 7 12 7 15.93 9.3 C38.6 22.41 62.64 32.4 88 39 C89.18 39.32 90.36 39.65 91.57 39.98 C95.38 41.02 99.18 42.02 103 43 C104.27 43.33 105.54 43.66 106.85 44 C126.29 48.91 146.08 51.25 166 53.19 C166.87 53.27 167.73 53.36 168.62 53.44 C171.16 53.69 173.71 53.93 176.25 54.17 C176.98 54.24 177.71 54.31 178.46 54.38 C192.4 55.65 206.31 56.17 220.3 56.2 C221.92 56.21 223.55 56.22 225.17 56.22 C230.36 56.24 235.56 56.25 240.75 56.25 C241.64 56.25 242.52 56.25 243.44 56.25 C273.52 56.27 303.41 55.5 333.42 53.2 C335.81 53.01 338.2 52.84 340.6 52.68 C372.49 50.45 404.29 46.76 436.09 43.41 C439.66 43.04 443.23 42.66 446.8 42.29 C468.75 39.99 490.66 37.46 512.56 34.68 C530.72 32.37 548.9 30.27 567.09 28.24 C577.57 27.07 588.05 25.89 598.52 24.61 C675.89 15.16 753.54 7.94 831.38 3.75 C832.15 3.71 832.93 3.67 833.74 3.62 C871.15 1.6 908.47 0.79 945.94 0.81 C947.45 0.81 947.45 0.81 949 0.81 C979.66 0.82 1010.27 1.02 1040.89 2.82 C1044.22 3.01 1047.55 3.19 1050.88 3.37 C1099.72 6.05 1148.57 10.52 1196.85 18.49 C1202.52 19.4 1208.21 20.18 1213.9 20.92 C1221.37 21.95 1228.55 23.51 1236 25 C1236 162.28 1236 299.56 1236 441 C1225.91 435.4 1225.91 435.4 1222.22 432.98 C1220.98 432.17 1220.98 432.17 1219.71 431.35 C1218.84 430.78 1217.96 430.21 1217.06 429.62 C1164.48 395.92 1105.32 367.32 1044.41 352.6 C1042.3 352.07 1040.21 351.52 1038.12 350.93 C1028.94 348.33 1019.67 346.46 1010.3 344.66 C1009.26 344.46 1008.21 344.26 1007.14 344.05 C1006.2 343.87 1005.25 343.69 1004.28 343.51 C1002 343 1002 343 1000 342 C998.66 341.75 997.3 341.54 995.95 341.35 C995.12 341.23 994.29 341.12 993.43 341 C992.53 340.87 991.62 340.75 990.69 340.62 C979.17 339.04 979.17 339.04 974.41 338.24 C893.82 324.93 809.11 333.74 729 346 C727.96 346.16 727.96 346.16 726.9 346.32 C705.34 349.59 705.34 349.59 684.02 354.11 C679.78 355.1 675.49 355.78 671.2 356.48 C656.49 358.89 641.87 361.71 627.36 365.12 C618.98 367.07 610.54 368.63 602.06 370.12 C594.22 371.52 586.47 373.19 578.7 374.95 C574.06 375.99 569.42 377 564.78 378 C564.02 378.16 563.25 378.33 562.47 378.5 C559.37 379.17 556.27 379.83 553.18 380.5 C550.86 381 548.54 381.5 546.22 382 C545.08 382.24 545.08 382.24 543.93 382.49 C537.64 383.85 531.37 385.25 525.1 386.66 C519.37 387.94 513.62 389.03 507.84 390.09 C501.3 391.3 494.78 392.63 488.25 393.94 C486.92 394.2 485.59 394.47 484.26 394.74 C478.73 395.84 473.2 396.95 467.67 398.1 C456.51 400.41 445.3 402.34 434.05 404.16 C427.71 405.2 421.38 406.28 415.06 407.48 C351.53 419.52 287.11 426.42 222.58 429.86 C220.11 429.99 217.64 430.14 215.17 430.29 C200.74 431.13 186.32 431.24 171.88 431.25 C170.56 431.25 169.25 431.25 167.9 431.25 C138.87 431.26 109.96 429.92 81 428 C80.07 427.94 79.15 427.88 78.19 427.82 C55.69 426.34 33.33 423.91 10.96 421.09 C10.2 420.99 9.43 420.9 8.65 420.8 C5.63 420.41 2.89 419.96 0 419 C0 280.73 0 142.46 0 0 Z " fill="#FE0206" transform="translate(11,145)"/>
<path d="M0 0 C2.52 -0 5.05 -0.01 7.57 -0.01 C28.95 -0.05 50.13 0.62 71.44 2.31 C73.13 2.44 74.81 2.56 76.5 2.69 C80.38 2.99 84.26 3.33 88.13 3.69 C88.8 3.75 89.47 3.81 90.16 3.87 C114.24 6.12 137.86 9.98 161.44 15.31 C162.71 15.59 163.98 15.88 165.29 16.17 C186.6 20.97 207 27.64 227.44 35.31 C228.56 35.73 229.68 36.15 230.84 36.58 C259.87 47.55 288.4 61.41 314.44 78.31 C315.28 78.85 316.12 79.39 316.98 79.95 C328.81 87.63 340.29 95.67 351.44 104.31 C352.04 104.77 352.64 105.23 353.26 105.7 C365.54 115.14 377.25 125.17 388.61 135.7 C392.19 139 395.83 142.22 399.48 145.44 C401.44 147.31 401.44 147.31 403.44 150.31 C-11.04 150.31 -425.52 150.31 -852.56 150.31 C-852.56 111.37 -852.56 72.43 -852.56 32.31 C-844.31 33.96 -836.06 35.61 -827.56 37.31 C-822.48 38.27 -817.42 39.22 -812.34 40.14 C-810.32 40.51 -808.31 40.88 -806.3 41.25 C-798.78 42.62 -791.25 43.84 -783.67 44.88 C-780.55 45.31 -777.43 45.78 -774.31 46.25 C-764.24 47.68 -754.13 48.8 -744.02 49.92 C-740.78 50.28 -737.56 50.67 -734.33 51.06 C-654.23 60.47 -570.37 59.18 -490.17 51.56 C-487.31 51.29 -484.45 51.02 -481.58 50.75 C-456.11 48.36 -430.66 45.81 -405.25 42.85 C-402.03 42.48 -398.8 42.11 -395.57 41.75 C-366.34 38.45 -337.19 34.54 -308.06 30.5 C-307.12 30.37 -306.17 30.24 -305.21 30.1 C-289.73 27.96 -274.26 25.8 -258.78 23.64 C-145.51 7.85 -145.51 7.85 -89.17 3.52 C-86.52 3.31 -83.87 3.09 -81.21 2.86 C-54.15 0.6 -27.14 0.02 0 0 Z " fill="#E1E8E9" transform="translate(852.5556716918945,568.6899261474609)"/>
<path d="M0 0 C0.7 -0 1.41 -0 2.13 -0 C35.15 -0.02 67.79 1.44 100.42 6.76 C105.03 7.49 109.66 8.11 114.29 8.74 C118.41 9.39 122.38 10.41 126.4 11.47 C129.74 12.31 133.09 12.98 136.47 13.62 C174.68 21.13 211.96 34.16 247.36 50.28 C249.85 51.41 252.35 52.52 254.85 53.63 C289.03 68.94 321.35 87.48 352.5 108.25 C352.87 110.17 352.87 110.17 352.86 112.55 C352.86 113.46 352.87 114.36 352.87 115.29 C352.86 116.28 352.85 117.28 352.84 118.3 C352.84 119.34 352.84 120.39 352.84 121.46 C352.84 124.93 352.82 128.39 352.79 131.85 C352.79 134.25 352.78 136.64 352.78 139.04 C352.77 145.36 352.74 151.67 352.71 157.99 C352.68 164.43 352.66 170.87 352.65 177.31 C352.61 189.96 352.56 202.6 352.5 215.25 C351.24 214.31 349.98 213.38 348.72 212.44 C348.02 211.92 347.31 211.39 346.59 210.86 C343.43 208.43 340.48 205.78 337.5 203.12 C330.43 196.92 323.06 191.24 315.47 185.7 C313.54 184.28 311.61 182.84 309.68 181.41 C260.88 145.08 204.18 117.01 145.14 101.94 C142.45 101.24 139.77 100.47 137.09 99.7 C125.4 96.32 113.79 93.93 101.76 92.11 C98.04 91.54 94.48 90.74 90.84 89.79 C5.04 70.14 -94.25 79.62 -200.99 91.82 C-205.4 92.36 -209.82 92.83 -214.24 93.29 C-228.97 94.84 -243.62 96.9 -258.28 98.98 C-269.51 100.57 -280.74 102.07 -292 103.44 C-300.8 104.51 -309.56 105.67 -318.31 107.11 C-328.59 108.79 -338.93 110.07 -349.26 111.42 C-354.16 112.07 -359.07 112.73 -363.97 113.41 C-431.05 122.6 -498.34 130.73 -565.94 135 C-566.86 135.06 -567.77 135.12 -568.72 135.18 C-597.48 137 -626.25 137.46 -655.06 137.44 C-655.83 137.44 -656.59 137.44 -657.38 137.44 C-696.19 137.43 -734.88 136.3 -773.5 132.25 C-774.17 132.18 -774.85 132.11 -775.54 132.04 C-798.65 129.59 -821.59 126.1 -844.5 122.25 C-845.24 122.13 -845.98 122 -846.75 121.87 C-855.59 120.38 -864.35 118.72 -873.06 116.56 C-876.18 115.8 -879.29 115.04 -882.5 114.25 C-882.5 105.34 -882.5 96.43 -882.5 87.25 C-875.39 88.02 -875.39 88.02 -872.95 88.28 C-868.83 88.73 -864.71 89.17 -860.59 89.61 C-845.82 91.2 -845.82 91.2 -838.6 92.08 C-814.67 94.94 -790.56 96.01 -766.5 97.25 C-765.55 97.3 -764.6 97.35 -763.62 97.4 C-747.42 98.25 -731.23 98.49 -715 98.5 C-713.04 98.5 -713.04 98.5 -711.03 98.5 C-683.13 98.51 -655.33 97.24 -627.5 95.25 C-626.62 95.19 -625.74 95.12 -624.83 95.06 C-614.04 94.28 -603.27 93.34 -592.5 92.25 C-591.81 92.18 -591.12 92.11 -590.4 92.04 C-541.02 87.06 -491.38 80.67 -442.81 70.36 C-429.56 67.55 -416.18 65.27 -402.85 62.88 C-393.04 61.11 -383.27 59.23 -373.5 57.25 C-371.72 56.9 -369.95 56.55 -368.17 56.2 C-363.35 55.23 -358.55 54.18 -353.75 53.12 C-346.17 51.46 -338.57 49.84 -330.97 48.25 C-329.72 47.99 -329.72 47.99 -328.44 47.72 C-324.26 46.85 -320.08 45.97 -315.9 45.1 C-309.33 43.73 -302.78 42.36 -296.28 40.69 C-289.49 38.95 -282.63 37.67 -275.75 36.38 C-272.99 35.85 -270.24 35.32 -267.48 34.79 C-266.8 34.66 -266.12 34.53 -265.41 34.4 C-259.28 33.22 -253.17 31.97 -247.06 30.69 C-246.11 30.49 -245.15 30.29 -244.17 30.08 C-240.23 29.25 -236.29 28.42 -232.35 27.58 C-211.05 23.05 -211.05 23.05 -202.07 21.81 C-197.64 21.12 -193.24 20.26 -188.84 19.4 C-142.49 10.5 -95.59 4.43 -48.5 1.25 C-47.21 1.16 -45.91 1.06 -44.58 0.96 C-29.74 -0.04 -14.87 0.01 0 0 Z " fill="#0607F6" transform="translate(893.5,476.75)"/>
<path d="M0 0 C3.77 1.43 6.42 2.95 9.5 5.56 C44.41 34.12 86.77 54.03 129 69 C130.38 69.49 130.38 69.49 131.78 69.99 C156.45 78.62 182.65 85.28 208.43 89.55 C210.4 89.89 212.36 90.27 214.32 90.66 C226.07 92.97 237.87 94.54 249.75 96 C250.8 96.13 251.86 96.26 252.94 96.4 C302.15 102.46 351.37 104.41 400.94 104.31 C402.01 104.31 403.07 104.31 404.17 104.31 C481.65 104.21 558.93 100.05 636.29 96.09 C683.18 93.69 730.07 91.61 777 90 C778.67 89.94 778.67 89.94 780.37 89.88 C812.2 88.8 844.03 88.8 875.88 88.81 C877.18 88.81 878.48 88.81 879.82 88.81 C918.25 88.82 956.62 88.91 995 91 C996.86 91.1 996.86 91.1 998.75 91.2 C1066.28 94.77 1133.49 101.22 1200.38 111.25 C1201.49 111.42 1202.61 111.58 1203.76 111.75 C1206.94 112.23 1210.1 112.71 1213.27 113.2 C1214.19 113.34 1215.1 113.48 1216.04 113.62 C1222.87 114.69 1229.21 116.3 1236 118 C1236 126.58 1236 135.16 1236 144 C1230.28 143.36 1224.87 142.67 1219.25 141.62 C1213.04 140.49 1206.83 139.5 1200.59 138.61 C1199.69 138.49 1198.79 138.36 1197.87 138.23 C1147.7 131.18 1097.47 125.97 1046.89 123.16 C1044.09 123 1041.29 122.84 1038.49 122.68 C973.92 119 908.56 119.66 844 123 C842.75 123.06 841.5 123.13 840.21 123.19 C769.59 126.77 699.28 133.36 629 141 C627.71 141.14 626.41 141.28 625.08 141.43 C598 144.37 570.97 147.59 543.95 151.01 C523.9 153.55 503.84 155.86 483.75 158.04 C476.07 158.87 468.4 159.75 460.72 160.64 C441.49 162.85 422.25 164.98 403 167 C402.18 167.09 401.36 167.17 400.52 167.26 C369.33 170.54 338.16 173.11 306.84 174.84 C304.26 174.99 301.68 175.14 299.09 175.31 C280.82 176.4 262.49 176.24 244.19 176.25 C242.85 176.25 242.85 176.25 241.49 176.25 C215.22 176.27 189.13 176.03 163 173 C161.88 172.88 160.76 172.75 159.6 172.63 C153.04 171.9 146.52 171 140 170 C137.93 169.7 135.87 169.4 133.8 169.1 C90.3 162.61 43.55 149.25 7 124 C6.42 123.71 5.84 123.43 5.24 123.14 C3.1 121.94 1.61 120.86 0 119 C-1.03 115.18 -0.89 111.45 -0.79 107.51 C-0.8 106.35 -0.8 105.19 -0.8 103.99 C-0.79 100.15 -0.74 96.32 -0.68 92.48 C-0.67 89.82 -0.66 87.16 -0.65 84.5 C-0.63 78.21 -0.57 71.93 -0.5 65.64 C-0.43 58.48 -0.39 51.32 -0.35 44.16 C-0.28 29.44 -0.16 14.72 0 0 Z " fill="#0608F6" transform="translate(11,26)"/>
<path d="M0 0 C8.95 6.71 8.95 6.71 11.97 9.04 C26.62 20.31 41.31 31.21 57 41 C58.15 41.72 58.15 41.72 59.33 42.46 C77.6 53.8 96.36 63.69 116.19 72 C116.84 72.27 117.49 72.55 118.16 72.83 C126.33 76.25 134.57 79.29 143 82 C144.41 82.48 145.82 82.97 147.23 83.46 C180.69 94.98 214.96 102.27 249.91 107.4 C253.24 107.88 256.56 108.4 259.89 108.93 C281.71 112.37 303.9 113.77 325.94 115.12 C327.15 115.2 328.37 115.28 329.62 115.35 C333.75 115.59 337.87 115.8 342 116 C342.84 116.04 343.68 116.09 344.55 116.13 C368.95 117.35 393.39 117.24 417.81 117.25 C418.96 117.25 420.1 117.25 421.28 117.25 C462.99 117.27 504.56 116.29 546.22 114.23 C551.13 113.99 556.04 113.76 560.95 113.53 C593.16 112.01 625.36 110.35 657.56 108.66 C721.58 105.29 721.58 105.29 748.8 104.33 C754.05 104.15 759.3 103.95 764.54 103.73 C803.69 102.08 842.83 101.79 882 101.76 C886.73 101.75 891.45 101.74 896.18 101.73 C943.71 101.65 991.18 102.76 1038.62 105.81 C1039.97 105.9 1041.31 105.98 1042.65 106.07 C1086.09 108.81 1129.33 113.17 1172.5 118.68 C1174.73 118.97 1176.95 119.25 1179.17 119.53 C1195.17 121.56 1211.11 124.07 1227.04 126.58 C1229.33 126.94 1231.63 127.3 1233.92 127.66 C1237.14 128.16 1240.37 128.68 1243.59 129.2 C1245.06 129.42 1245.06 129.42 1246.55 129.66 C1247.46 129.8 1248.37 129.95 1249.3 130.1 C1250.09 130.23 1250.88 130.35 1251.7 130.48 C1254 131 1254 131 1259 133 C1259 326.05 1259 519.1 1259 718 C1254.81 716.95 1254.06 716.38 1251.25 713.38 C1248.03 710.03 1244.71 706.93 1241.19 703.91 C1238.64 701.69 1236.17 699.41 1233.69 697.12 C1228.29 692.2 1222.71 687.56 1217 683 C1216.24 682.39 1216.24 682.39 1215.46 681.76 C1211.34 678.46 1207.18 675.22 1203 672 C1202.31 671.47 1201.63 670.95 1200.92 670.4 C1166.46 644.06 1127.8 622.17 1087.17 606.83 C1084.92 605.97 1082.69 605.06 1080.46 604.14 C1027.21 582.82 970.01 573.55 913 570 C911.73 569.91 910.45 569.83 909.14 569.74 C891.39 568.63 873.59 568.75 855.81 568.75 C854.95 568.75 854.08 568.75 853.19 568.75 C825.01 568.74 797.01 569.33 768.91 571.75 C765.91 572.01 762.89 572.26 759.88 572.5 C707.61 576.84 655.61 583.65 603.71 591.07 C600.72 591.49 597.73 591.92 594.75 592.35 C594 592.45 593.25 592.56 592.48 592.67 C528.88 601.74 465.16 610.42 401.21 616.68 C397.89 617.01 394.58 617.34 391.26 617.67 C362.03 620.56 332.87 622.84 303.5 623.81 C299.58 623.94 295.66 624.09 291.74 624.26 C272.53 625.04 253.34 625.24 234.12 625.25 C232.91 625.25 232.91 625.25 231.67 625.25 C188.62 625.27 145.86 623.11 103.07 618.23 C101.06 618.01 99.04 617.78 97.02 617.56 C93.51 617.18 90.01 616.78 86.5 616.38 C85.53 616.26 84.55 616.15 83.55 616.04 C78.9 615.48 74.48 614.67 69.96 613.46 C67.16 612.8 64.36 612.49 61.5 612.16 C49.21 610.75 37.12 608.37 25 605.94 C24.11 605.76 23.21 605.58 22.29 605.4 C19.72 604.88 17.14 604.36 14.56 603.84 C13.79 603.68 13.01 603.53 12.22 603.37 C11.49 603.22 10.76 603.07 10 602.91 C9.06 602.72 9.06 602.72 8.09 602.52 C5.35 601.84 2.68 600.89 0 600 C0 402 0 204 0 0 Z M11 25 C11 211.45 11 397.9 11 590 C26.91 593.92 26.91 593.92 42.94 596.94 C43.9 597.09 44.86 597.24 45.85 597.4 C48.02 597.74 50.18 598.08 52.35 598.42 C55.7 598.95 59.05 599.5 62.39 600.06 C83.88 603.64 105.36 606.53 127.05 608.62 C130.37 608.94 133.68 609.28 137 609.62 C142.99 610.2 148.99 610.63 155 611 C156.06 611.07 156.06 611.07 157.14 611.13 C251.03 616.87 344.97 611.22 509 592 C509.77 591.9 510.53 591.8 511.32 591.69 C528.68 589.41 546.01 587.02 563.33 584.44 C564.59 584.25 564.59 584.25 565.88 584.06 C566.72 583.94 567.56 583.81 568.42 583.68 C584.55 581.29 600.7 579.2 616.88 577.18 C625.51 576.09 634.15 575.01 642.76 573.76 C643.44 573.66 644.13 573.56 644.83 573.46 C645.85 573.31 645.85 573.31 646.89 573.16 C691 566.75 735.55 562.17 780 559 C781.22 558.91 781.22 558.91 782.46 558.82 C847.7 554.05 914.96 554.54 979.62 564.6 C980.34 564.71 981.06 564.82 981.8 564.94 C986.21 565.64 990.55 566.53 994.9 567.53 C997.06 568.01 999.23 568.44 1001.41 568.86 C1014.74 571.4 1027.88 574.57 1041 578 C1041.95 578.25 1042.9 578.49 1043.88 578.75 C1048.6 580 1053.18 581.36 1057.73 583.14 C1060.64 584.24 1063.57 585.24 1066.51 586.24 C1108.62 600.74 1149.38 619.43 1186 645 C1186.68 645.47 1187.36 645.94 1188.06 646.43 C1197.59 653.03 1206.9 659.83 1216 667 C1216.85 667.66 1217.69 668.33 1218.57 669.01 C1223.91 673.24 1229.12 677.6 1234.27 682.06 C1237 684.39 1239.77 686.59 1242.7 688.66 C1243.32 689.1 1243.94 689.54 1244.58 690 C1245.28 690.49 1245.28 690.49 1246 691 C1246.76 623.49 1247.15 555.99 1247.1 488.48 C1247.1 476.45 1247.09 464.43 1247.09 452.41 C1247.09 430.99 1247.09 409.58 1247.08 388.16 C1247.07 367.45 1247.06 346.73 1247.05 326.02 C1247.05 324.08 1247.05 324.08 1247.05 322.1 C1247.05 315.62 1247.05 309.13 1247.05 302.64 C1247.04 249.43 1247.02 196.21 1247 143 C1245.08 142.51 1243.16 142.03 1241.23 141.54 C1240.16 141.27 1239.09 141 1237.99 140.73 C1234.7 139.93 1231.43 139.32 1228.08 138.82 C1226.85 138.64 1225.63 138.45 1224.37 138.26 C1223.08 138.08 1221.79 137.89 1220.46 137.7 C1219.08 137.49 1217.69 137.28 1216.3 137.08 C1212.61 136.53 1208.92 135.99 1205.23 135.46 C1202.92 135.12 1200.61 134.79 1198.31 134.45 C1173.58 130.85 1148.86 127.53 1124 125 C1122.54 124.85 1122.54 124.85 1121.06 124.7 C1082.77 120.75 1044.43 118.03 1006 116 C1004.87 115.94 1003.74 115.88 1002.57 115.81 C964.03 113.72 925.46 113.82 886.88 113.81 C885.59 113.81 884.31 113.81 882.99 113.81 C851.31 113.8 819.66 113.92 788 115 C786.76 115.04 785.51 115.08 784.23 115.13 C726.26 117.11 668.33 119.96 610.4 122.87 C480.24 129.4 480.24 129.4 416.43 129.25 C412.31 129.25 408.2 129.26 404.09 129.27 C356.05 129.36 308.42 126.9 260.75 121 C259.73 120.87 258.71 120.75 257.66 120.62 C245.68 119.13 233.83 117.4 222 115 C221.01 114.8 220.01 114.61 218.99 114.41 C145.61 99.92 73.05 74.18 14.57 26.11 C13.05 24.81 13.05 24.81 11 25 Z " fill="#FBFAFD" transform="translate(0,1)"/>
<path d="M0 0 C13.33 11.14 22.53 27.9 24.54 45.16 C25.67 60.94 26.18 76.55 19.54 91.16 C19.07 92.25 18.6 93.34 18.12 94.46 C10.06 111.86 -3.74 123.62 -21.46 130.41 C-22.42 130.78 -22.42 130.78 -23.4 131.16 C-33.37 134.8 -42.89 135.48 -53.46 135.41 C-54.67 135.42 -55.87 135.43 -57.12 135.44 C-64.14 135.42 -70.65 134.89 -77.46 133.16 C-78.31 132.95 -79.15 132.74 -80.02 132.52 C-97.18 128.02 -111.63 117.15 -120.71 101.95 C-132.09 82.16 -134.21 60.8 -128.73 38.78 C-125.43 26.65 -119.89 16.54 -111.46 7.16 C-110.94 6.55 -110.42 5.94 -109.89 5.31 C-82.19 -25.17 -31.18 -23.26 0 0 Z " fill="#FFFBFB" transform="translate(1158.4609375,286.8359375)"/>
<path d="M0 0 C3.57 1.82 4.63 5.07 5.92 8.7 C6.2 9.69 6.49 10.68 6.78 11.69 C8.33 16.93 9.97 22.13 11.71 27.32 C12.09 28.43 12.09 28.43 12.47 29.56 C13 31.16 13.54 32.76 14.08 34.35 C15.06 37.28 16.02 40.21 16.99 43.14 C17.34 44.2 17.69 45.25 18.04 46.34 C18.72 48.39 19.4 50.45 20.07 52.51 C21.88 57.95 23.84 63.29 26 68.6 C27.57 72.5 28.96 76.47 30.34 80.44 C30.64 81.29 30.94 82.15 31.24 83.02 C33.32 89.03 35.27 95.06 37.15 101.13 C38.87 106.67 40.63 112.12 42.91 117.46 C43.78 119.56 44.58 121.66 45.37 123.79 C45.62 124.47 45.87 125.14 46.13 125.83 C46.63 127.16 47.12 128.49 47.6 129.83 C49.25 134.16 51.01 136.56 54.96 139 C63.78 141.73 74.23 140.41 82.96 138 C85.06 132 85.25 126.55 85.22 120.22 C85.23 119.16 85.23 118.1 85.23 117 C85.24 113.5 85.24 110 85.23 106.5 C85.23 104.06 85.23 101.62 85.24 99.19 C85.24 94.08 85.23 88.97 85.23 83.86 C85.21 77.32 85.22 70.78 85.23 64.24 C85.24 59.21 85.24 54.17 85.23 49.14 C85.23 46.72 85.23 44.31 85.24 41.9 C85.24 38.53 85.23 35.16 85.22 31.79 C85.23 30.3 85.23 30.3 85.24 28.78 C85.2 23.49 84.91 18.95 82.96 14 C78.89 11.82 74.47 11.66 69.92 11.35 C67.96 11 67.96 11 65.96 9 C66.29 7.02 66.62 5.04 66.96 3 C89.4 3 111.84 3 134.96 3 C134.96 5.31 134.96 7.62 134.96 10 C132.87 12.1 128.58 11.76 125.73 12.11 C121.94 13.33 121.02 14.59 118.96 18 C118.38 21.45 118.43 24.85 118.46 28.34 C118.46 29.38 118.45 30.42 118.45 31.49 C118.43 34.93 118.45 38.36 118.47 41.8 C118.47 44.19 118.47 46.59 118.46 48.98 C118.46 54 118.48 59.01 118.5 64.03 C118.53 70.45 118.52 76.86 118.51 83.28 C118.5 88.22 118.51 93.17 118.52 98.11 C118.53 100.47 118.53 102.84 118.53 105.2 C118.52 108.52 118.54 111.83 118.56 115.15 C118.56 116.12 118.55 117.09 118.55 118.09 C118.61 124.07 119.28 129.57 121.96 135 C127.15 138.59 134.76 137.41 140.89 137.43 C143.13 137.44 145.36 137.49 147.6 137.54 C155.89 137.64 163.13 137.26 169.96 132 C172.01 129.99 173.22 128.18 174.78 125.69 C175.33 124.84 175.33 124.84 175.89 123.97 C177.5 121.49 179 118.95 180.46 116.38 C181.71 114.19 181.71 114.19 183.96 111 C186.59 110.38 186.59 110.38 188.96 111 C189.95 111.66 190.94 112.32 191.96 113 C191.53 118.95 190.48 124.64 189.15 130.44 C189 131.13 188.85 131.82 188.69 132.53 C187.3 138.42 185.28 143.23 182.96 149 C122.9 149 62.84 149 0.96 149 C0.96 142 0.96 142 1.96 141 C4.8 140.43 7.64 139.97 10.5 139.5 C12.9 139.25 12.9 139.25 13.96 138 C13.43 132.02 11.81 126.39 10.15 120.63 C9.9 119.73 9.66 118.84 9.4 117.92 C7.01 108.28 7.01 108.28 1.96 100 C-0.92 99.84 -3.78 99.74 -6.66 99.69 C-7.96 99.66 -7.96 99.66 -9.28 99.62 C-12.05 99.56 -14.83 99.5 -17.6 99.44 C-19.47 99.4 -21.35 99.35 -23.22 99.31 C-27.83 99.2 -32.43 99.1 -37.04 99 C-37.33 99.89 -37.33 99.89 -37.63 100.79 C-39 104.92 -40.38 109.04 -41.79 113.16 C-42.39 114.94 -42.99 116.72 -43.6 118.5 C-44.05 119.83 -44.05 119.83 -44.52 121.19 C-46.39 126.75 -47.86 132.25 -49.04 138 C-48.06 138.2 -47.08 138.39 -46.08 138.59 C-44.81 138.85 -43.53 139.11 -42.22 139.38 C-40.96 139.63 -39.69 139.89 -38.39 140.15 C-35.04 141 -35.04 141 -32.04 143 C-31.79 146.07 -31.79 146.07 -32.04 149 C-33.65 150.62 -35.4 150.13 -37.63 150.13 C-39.1 150.14 -39.1 150.14 -40.59 150.14 C-41.66 150.14 -42.72 150.14 -43.82 150.14 C-45.44 150.14 -45.44 150.14 -47.1 150.14 C-49.4 150.14 -51.69 150.14 -53.99 150.13 C-57.52 150.13 -61.05 150.13 -64.58 150.14 C-66.8 150.14 -69.03 150.14 -71.25 150.14 C-72.32 150.14 -73.38 150.14 -74.48 150.14 C-75.45 150.14 -76.43 150.14 -77.44 150.13 C-78.3 150.13 -79.17 150.13 -80.06 150.13 C-82.04 150 -82.04 150 -83.04 149 C-83.16 145.5 -83.16 145.5 -83.04 142 C-81.2 140.17 -78.05 140.7 -75.55 140.58 C-70.73 139.48 -67.76 137.13 -65.09 133.01 C-64.56 131.87 -64.02 130.74 -63.47 129.57 C-63.18 128.95 -62.89 128.34 -62.59 127.7 C-59.74 121.6 -57.36 115.32 -55.04 109 C-54.18 106.79 -53.33 104.59 -52.47 102.38 C-50.66 97.68 -48.91 92.96 -47.2 88.22 C-42.89 76.32 -38.52 64.48 -33.71 52.78 C-30.72 45.43 -27.89 38.04 -25.22 30.57 C-24.92 29.74 -24.62 28.91 -24.31 28.06 C-22.94 24.17 -21.92 20.72 -21.65 16.6 C-21.04 13 -21.04 13 -18.81 11.16 C-17.88 10.76 -16.94 10.35 -15.97 9.94 C-11.06 7.63 -7.59 5.09 -3.79 1.23 C-2.04 0 -2.04 0 0 0 Z " fill="#FFFAFA" transform="translate(613.03515625,269.99609375)"/>
<path d="M0 0 C0.76 0.39 1.52 0.78 2.3 1.18 C15.05 8.62 21.48 22.82 25.25 36.5 C26.84 42.67 27.82 48.63 28 55 C28.02 55.72 28.04 56.44 28.06 57.18 C28.58 78.53 27.72 101.52 12.97 118.31 C5.55 125.62 -2.85 128.14 -13.12 128.5 C-24.53 128.12 -33.28 123.15 -41.06 115 C-48.46 105.83 -52.41 94.33 -55 83 C-55.23 82.03 -55.45 81.07 -55.68 80.07 C-60.04 57.37 -58.36 31.05 -45.71 11.28 C-34.64 -3.47 -16.55 -8.81 0 0 Z " fill="#FF0306" transform="translate(1120,284)"/>
<path d="M0 0 C1.2 0 1.2 0 2.43 0 C3.81 0 3.81 0 5.22 -0 C6.74 0 6.74 0 8.29 0.01 C9.36 0.01 10.42 0.01 11.52 0.01 C15.05 0.01 18.58 0.02 22.12 0.03 C24.56 0.03 27 0.03 29.44 0.03 C35.89 0.03 42.33 0.04 48.77 0.05 C55.34 0.06 61.91 0.07 68.48 0.07 C81.38 0.08 94.28 0.1 107.17 0.12 C107.5 3.01 107.83 5.89 108.15 8.78 C108.24 9.59 108.33 10.41 108.43 11.24 C109.04 16.74 109.54 22.22 109.8 27.75 C109.84 28.48 109.88 29.21 109.92 29.96 C110.01 31.68 110.09 33.4 110.17 35.12 C107.47 36.48 105.17 36.19 102.17 36.12 C101.66 35.03 101.14 33.93 100.6 32.8 C99.9 31.34 99.19 29.89 98.49 28.44 C98.15 27.71 97.81 26.99 97.46 26.25 C94.6 20.4 91.63 15.89 85.4 13.32 C78.36 11.25 70.87 11.81 63.61 11.94 C55.97 12.03 55.97 12.03 48.17 12.12 C48.17 28.95 48.17 45.78 48.17 63.12 C52.69 63.18 57.21 63.25 61.86 63.31 C63.28 63.34 64.69 63.37 66.15 63.39 C67.84 63.4 67.84 63.4 69.56 63.42 C70.71 63.43 71.86 63.45 73.04 63.46 C76.53 63.09 78.37 62.2 81.17 60.12 C82.35 58.33 82.35 58.33 82.92 56.31 C83.15 55.61 83.38 54.92 83.62 54.2 C84.34 51.53 84.83 48.87 85.17 46.12 C87.5 45.74 89.84 45.41 92.17 45.12 C93.17 46.12 93.17 46.12 93.29 48.1 C93.29 48.97 93.29 49.84 93.29 50.73 C93.29 52.21 93.29 52.21 93.29 53.71 C93.28 54.77 93.28 55.84 93.27 56.94 C93.27 58.03 93.27 59.11 93.27 60.23 C93.26 63.72 93.25 67.2 93.24 70.69 C93.23 73.04 93.23 75.4 93.22 77.75 C93.21 83.54 93.2 89.33 93.17 95.12 C90.86 95.12 88.55 95.12 86.17 95.12 C83.69 90.87 82.49 85.87 81.93 81 C81.32 78.91 81.32 78.91 79.04 78.02 C75.73 76.99 73.03 76.9 69.56 76.93 C68.31 76.93 67.07 76.94 65.78 76.95 C64.49 76.96 63.19 76.98 61.86 77 C60.55 77.01 59.24 77.02 57.88 77.03 C54.65 77.05 51.41 77.08 48.17 77.12 C48.13 83.24 48.09 89.36 48.06 95.48 C48.05 97.56 48.04 99.64 48.02 101.72 C48 104.72 47.99 107.72 47.98 110.72 C47.97 111.64 47.96 112.56 47.95 113.51 C47.95 119.88 48 126.38 52.11 131.56 C57.42 135.58 64.64 134.42 71.01 134.47 C72.52 134.49 74.04 134.52 75.56 134.56 C85.82 134.81 93.57 134.4 101.37 127.05 C105.51 121.34 108.97 115.41 112.17 109.12 C114.51 109.08 116.84 109.08 119.17 109.12 C120.17 110.12 120.17 110.12 120.35 113.7 C120.29 117.91 119.52 121.82 118.42 125.87 C118.1 127.15 117.77 128.42 117.44 129.73 C116.45 133.33 115.28 136.86 114.1 140.4 C113.74 141.47 113.38 142.55 113.01 143.65 C112.73 144.47 112.46 145.28 112.17 146.12 C96.68 146.15 81.18 146.16 65.68 146.17 C58.48 146.18 51.29 146.19 44.09 146.2 C37.82 146.21 31.55 146.21 25.28 146.22 C21.96 146.22 18.64 146.22 15.32 146.23 C11.62 146.24 7.91 146.24 4.21 146.24 C2.55 146.24 2.55 146.24 0.85 146.25 C-0.15 146.25 -1.15 146.24 -2.19 146.24 C-3.06 146.24 -3.94 146.25 -4.84 146.25 C-6.83 146.12 -6.83 146.12 -7.83 145.12 C-7.54 142.78 -7.21 140.45 -6.83 138.12 C-5.64 137.98 -4.46 137.83 -3.25 137.68 C-1.69 137.45 -0.13 137.23 1.42 137 C2.2 136.91 2.98 136.81 3.78 136.72 C4.53 136.6 5.29 136.48 6.07 136.37 C7.1 136.22 7.1 136.22 8.16 136.08 C11.31 134.58 12.83 132.24 14.17 129.12 C14.75 125.49 14.71 121.91 14.68 118.24 C14.68 117.15 14.69 116.07 14.69 114.95 C14.71 111.37 14.69 107.79 14.67 104.21 C14.67 101.72 14.67 99.23 14.68 96.74 C14.68 90.86 14.66 84.97 14.63 79.09 C14.61 74.4 14.61 69.71 14.62 65.02 C14.63 58.55 14.63 52.08 14.62 45.61 C14.61 43.14 14.61 40.68 14.61 38.21 C14.62 34.77 14.6 31.32 14.58 27.88 C14.58 26.86 14.59 25.84 14.59 24.79 C14.55 17.95 14.55 17.95 11.17 12.12 C8.17 10.12 6.53 9.66 3.05 9.06 C-1.73 8.22 -1.73 8.22 -2.83 7.12 C-2.95 4.12 -2.95 4.12 -2.83 1.12 C-1.83 0.12 -1.83 0.12 0 0 Z " fill="#FFFAFA" transform="translate(81.82534122467041,272.8769521713257)"/>
<path d="M0 0 C0.36 5.09 0.7 10.18 1.02 15.27 C1.13 17 1.25 18.74 1.37 20.47 C1.55 22.95 1.7 25.44 1.86 27.93 C1.91 28.71 1.97 29.48 2.03 30.28 C2.16 32.47 2.16 32.47 2 36 C-1.23 38.15 -2.28 38.2 -6 38 C-6.74 36.41 -6.74 36.41 -7.5 34.78 C-13.75 21.67 -18.99 13.61 -33 8 C-44.4 4.21 -56.13 4.93 -67 10 C-70.18 11.79 -73.1 13.79 -76 16 C-77.03 16.74 -78.06 17.49 -79.12 18.25 C-85.53 24.38 -89.87 31.76 -93 40 C-93.43 41.11 -93.43 41.11 -93.87 42.25 C-101.12 62.26 -98.56 87.36 -90.46 106.67 C-84.35 119.03 -75.34 128.9 -62.42 134.02 C-49.25 138.23 -36.32 136.5 -24.02 130.56 C-13.74 124.67 -8.47 115.39 -3.13 105.12 C-2 103 -2 103 -1 102 C1.94 101.81 1.94 101.81 5 102 C5.66 102.66 6.32 103.32 7 104 C6.82 112.61 4.94 121.07 2.56 129.31 C2.36 130.04 2.15 130.76 1.94 131.5 C0.84 135.12 -0.07 137.59 -3 140 C-4.82 140.77 -4.82 140.77 -6.84 141.32 C-7.6 141.52 -8.35 141.73 -9.12 141.94 C-9.91 142.15 -10.69 142.35 -11.5 142.56 C-12.25 142.77 -13.01 142.98 -13.78 143.19 C-16.18 143.84 -18.58 144.43 -21 145 C-21.82 145.19 -22.65 145.39 -23.49 145.59 C-30.87 147.13 -38.17 147.34 -45.68 147.32 C-47.73 147.31 -49.79 147.34 -51.84 147.36 C-74.46 147.47 -96.79 140.9 -113.21 124.84 C-128.45 109.31 -134.57 91.59 -134.42 69.96 C-133.81 48.82 -125.55 31.9 -110.85 16.79 C-100.4 6.92 -87.68 1.34 -73.94 -2.19 C-72.96 -2.44 -72.96 -2.44 -71.97 -2.69 C-48.23 -8.48 -23.56 -4.65 0 0 Z " fill="#FFF9F9" transform="translate(527,275)"/>
<path d="M0 0 C0.89 0.1 1.77 0.21 2.69 0.31 C3.18 0.97 3.68 1.62 4.19 2.3 C8.18 5.52 12.36 4.87 17.34 4.83 C18.97 4.84 18.97 4.84 20.63 4.85 C24.22 4.87 27.81 4.86 31.4 4.84 C33.9 4.85 36.39 4.85 38.88 4.86 C44.11 4.86 49.34 4.85 54.57 4.83 C59.94 4.81 65.31 4.81 70.68 4.83 C77.16 4.86 83.64 4.86 90.12 4.85 C92.6 4.85 95.07 4.85 97.54 4.86 C100.99 4.87 104.45 4.85 107.9 4.83 C109.44 4.84 109.44 4.84 111 4.85 C116.62 4.79 119.53 4.43 123.69 0.31 C126.5 0.06 126.5 0.06 128.69 0.31 C129.89 3.93 129.42 5.87 128.81 9.62 C127.62 17.45 127.28 25.26 127.03 33.16 C126.98 34.53 126.98 34.53 126.93 35.93 C126.9 37.16 126.9 37.16 126.86 38.42 C126.69 40.31 126.69 40.31 125.69 41.31 C123.35 41.35 121.02 41.35 118.69 41.31 C118.07 39.89 118.07 39.89 117.44 38.44 C117.16 37.8 116.89 37.17 116.6 36.52 C115.96 34.96 115.35 33.38 114.77 31.8 C112.59 25.87 110.45 21.67 104.91 18.2 C102.04 17.05 99.7 17.09 96.61 17.12 C95.45 17.12 94.29 17.13 93.09 17.14 C91.89 17.15 90.68 17.17 89.44 17.19 C88.22 17.2 86.99 17.21 85.73 17.21 C82.72 17.24 79.7 17.27 76.69 17.31 C76.62 32.46 76.56 47.61 76.53 62.77 C76.52 69.8 76.5 76.84 76.46 83.87 C76.43 90.66 76.41 97.45 76.4 104.24 C76.4 106.83 76.39 109.42 76.37 112.01 C76.35 115.64 76.35 119.26 76.35 122.89 C76.34 123.96 76.33 125.04 76.31 126.14 C76.34 131.54 76.41 135.77 79.69 140.31 C83.85 141.79 87.76 142.34 92.12 142.88 C95.69 143.31 95.69 143.31 96.69 144.31 C96.69 146.62 96.69 148.93 96.69 151.31 C71.94 151.31 47.19 151.31 21.69 151.31 C21.69 144.31 21.69 144.31 22.69 143.31 C24.56 143.13 26.44 142.99 28.31 142.88 C33.06 142.52 37.19 141.85 41.69 140.31 C42.58 137.24 42.81 134.51 42.81 131.31 C42.81 130.31 42.81 129.3 42.81 128.26 C42.81 127.16 42.8 126.07 42.8 124.93 C42.8 123.77 42.8 122.61 42.8 121.42 C42.8 117.57 42.79 113.73 42.79 109.89 C42.78 107.23 42.78 104.57 42.78 101.9 C42.78 95.61 42.77 89.32 42.76 83.02 C42.75 75.86 42.74 68.69 42.74 61.53 C42.73 46.79 42.71 32.05 42.69 17.31 C38.69 17.2 34.69 17.12 30.69 17.06 C29.56 17.03 28.44 17 27.28 16.96 C20.22 16.88 15.67 17.49 9.69 21.31 C6.03 25.01 3.81 29.54 1.44 34.12 C1.07 34.82 0.71 35.51 0.34 36.22 C-0.55 37.92 -1.43 39.61 -2.31 41.31 C-5.19 41.5 -5.19 41.5 -8.31 41.31 C-10.31 38.31 -10.31 38.31 -10.11 35.76 C-9.91 34.76 -9.7 33.75 -9.48 32.72 C-9.26 31.61 -9.04 30.49 -8.81 29.34 C-8.56 28.18 -8.32 27.01 -8.06 25.81 C-7.6 23.53 -7.13 21.25 -6.67 18.97 C-6.44 17.86 -6.21 16.75 -5.97 15.61 C-5.16 11.53 -4.44 7.44 -3.75 3.34 C-3.13 0.49 -2.93 0.4 0 0 Z " fill="#FFF9F9" transform="translate(896.3125,267.6875)"/>
<path d="M0 0 C22.44 0 44.88 0 68 0 C68 2.31 68 4.62 68 7 C66.45 7.43 66.45 7.43 64.88 7.88 C63.92 8.15 63.92 8.15 62.95 8.44 C61.22 8.94 59.49 9.41 57.75 9.88 C54.64 11.15 53.62 12.1 52 15 C51.15 17.81 50.87 20.33 50.86 23.25 C50.85 24.1 50.85 24.94 50.84 25.81 C50.84 26.72 50.84 27.64 50.84 28.58 C50.83 29.55 50.83 30.53 50.82 31.53 C50.81 34.74 50.8 37.95 50.8 41.17 C50.79 43.41 50.79 45.64 50.78 47.88 C50.77 52.57 50.76 57.27 50.76 61.96 C50.75 67.96 50.73 73.96 50.7 79.96 C50.68 84.59 50.68 89.21 50.68 93.83 C50.67 96.04 50.67 98.25 50.65 100.47 C50.64 103.57 50.64 106.67 50.64 109.77 C50.63 110.68 50.63 111.58 50.62 112.52 C50.66 119.42 51.56 126.04 56.06 131.5 C59.67 134.3 62.72 134.19 67.13 134.24 C68.2 134.25 68.2 134.25 69.29 134.26 C70.79 134.28 72.3 134.29 73.81 134.3 C76.1 134.31 78.38 134.36 80.66 134.4 C88.36 134.48 94.36 134.33 101 130 C101.99 129.67 102.98 129.34 104 129 C105.02 127.26 105.02 127.26 106 125 C107.3 122.82 108.61 120.66 109.94 118.5 C110.63 117.38 111.32 116.25 112.03 115.09 C115.31 109.94 115.31 109.94 117 108 C119.56 107.62 119.56 107.62 122 108 C124 110 124 110 124.28 111.81 C124.26 117.86 123.24 123.29 121.69 129.12 C121.47 129.98 121.26 130.83 121.04 131.71 C119.76 136.71 118.06 141.26 116 146 C100.76 146.02 85.52 146.04 70.29 146.05 C63.21 146.06 56.14 146.06 49.06 146.08 C42.24 146.09 35.42 146.09 28.6 146.09 C25.99 146.1 23.38 146.1 20.77 146.11 C17.13 146.11 13.49 146.11 9.85 146.11 C8.22 146.12 8.22 146.12 6.55 146.12 C5.56 146.12 4.58 146.12 3.56 146.12 C2.7 146.12 1.84 146.12 0.95 146.12 C-1 146 -1 146 -2 145 C-2.12 142 -2.12 142 -2 139 C0.24 136.76 6 137.26 9.19 137.01 C11.61 136.81 11.61 136.81 15 136 C17.03 133.09 17.25 130.6 17.27 127.11 C17.28 126.13 17.28 125.15 17.29 124.13 C17.29 123.06 17.29 121.99 17.29 120.89 C17.3 119.75 17.3 118.62 17.31 117.45 C17.33 113.7 17.33 109.94 17.34 106.19 C17.34 103.59 17.35 100.98 17.36 98.37 C17.37 92.91 17.37 87.45 17.37 81.99 C17.37 75.67 17.39 69.36 17.42 63.05 C17.45 56.98 17.46 50.9 17.46 44.82 C17.46 42.24 17.47 39.66 17.48 37.07 C17.5 33.46 17.5 29.85 17.49 26.24 C17.5 24.64 17.5 24.64 17.52 23 C17.48 18.52 17.45 15.78 15.15 11.85 C12.4 9.48 10.47 9.19 6.88 8.81 C1.18 8.18 1.18 8.18 -1 6 C-0.67 4.02 -0.34 2.04 0 0 Z " fill="#FFFAFA" transform="translate(209,273)"/>
<path d="M0 0 C22.77 0 45.54 0 69 0 C69 2.31 69 4.62 69 7 C65.81 8.44 62.8 9.25 59.38 9.88 C56.41 10.51 55.25 10.76 53 12.88 C51.33 16.43 50.87 19.62 50.86 23.53 C50.85 24.44 50.85 25.34 50.84 26.27 C50.84 27.26 50.84 28.24 50.84 29.26 C50.83 30.3 50.83 31.34 50.82 32.42 C50.81 35.87 50.8 39.32 50.8 42.77 C50.79 45.17 50.79 47.57 50.78 49.97 C50.77 55 50.76 60.03 50.76 65.06 C50.75 71.5 50.73 77.95 50.7 84.39 C50.68 89.34 50.68 94.3 50.68 99.26 C50.67 101.63 50.67 104.01 50.65 106.38 C50.64 109.71 50.64 113.03 50.64 116.35 C50.63 117.33 50.63 118.31 50.62 119.32 C50.65 124.98 51.27 129 54 134 C55.72 135.37 55.72 135.37 57.75 135.81 C58.45 136.02 59.14 136.23 59.86 136.45 C60.92 136.72 60.92 136.72 62 137 C63.03 137.31 63.03 137.31 64.08 137.62 C65.71 138.1 67.36 138.55 69 139 C69 141.31 69 143.62 69 146 C46.23 146 23.46 146 0 146 C0 143.69 0 141.38 0 139 C1.49 138.6 1.49 138.6 3 138.19 C5.8 137.38 8.56 136.52 11.31 135.56 C11.97 135.34 12.62 135.11 13.3 134.88 C15.36 133.99 15.36 133.99 17 131 C17.31 128.77 17.31 128.77 17.27 126.26 C17.28 125.29 17.28 124.31 17.29 123.31 C17.29 122.24 17.29 121.17 17.29 120.07 C17.3 118.95 17.3 117.82 17.31 116.66 C17.33 112.93 17.33 109.2 17.34 105.47 C17.34 102.89 17.35 100.3 17.36 97.71 C17.37 92.29 17.37 86.86 17.37 81.43 C17.37 75.16 17.39 68.89 17.42 62.62 C17.45 56.58 17.46 50.55 17.46 44.52 C17.46 41.95 17.47 39.38 17.48 36.81 C17.5 33.23 17.5 29.64 17.49 26.05 C17.5 24.46 17.5 24.46 17.52 22.83 C17.56 17.24 17.56 17.24 15.16 12.37 C12.43 10.64 9.97 9.98 6.81 9.31 C1.07 8.07 1.07 8.07 0 7 C0 4.69 0 2.38 0 0 Z " fill="#FFFAFA" transform="translate(809,273)"/>
<path d="M0 0 C0.66 0 1.32 0 2 0 C5.88 9.74 9.25 19.62 12.38 29.62 C12.91 31.31 12.91 31.31 13.46 33.04 C13.79 34.11 14.12 35.18 14.46 36.29 C14.76 37.25 15.05 38.2 15.36 39.19 C16 42 16 42 16 48 C6.1 48 -3.8 48 -14 48 C-13.28 41.51 -12.4 36.36 -10.31 30.35 C-10.05 29.57 -9.79 28.79 -9.52 27.99 C-8.69 25.53 -7.84 23.08 -7 20.62 C-6.43 18.96 -5.87 17.29 -5.3 15.62 C-4.27 12.58 -3.24 9.54 -2.2 6.5 C-1.46 4.34 -0.72 2.17 0 0 Z " fill="#FF080B" transform="translate(595,309)"/>
<path d="M0 0 C0.66 0.33 1.32 0.66 2 1 C-3.28 6.28 -8.56 11.56 -14 17 C-14.66 16.67 -15.32 16.34 -16 16 C-14.28 14.08 -12.55 12.16 -10.81 10.25 C-10.33 9.71 -9.85 9.17 -9.35 8.62 C-6.44 5.41 -3.47 2.62 0 0 Z " fill="#FFDCDD" transform="translate(423,286)"/>
<path d="M0 0 C-1.54 3.68 -3.78 5.99 -6.62 8.75 C-7.85 9.95 -7.85 9.95 -9.1 11.17 C-9.73 11.78 -10.35 12.38 -11 13 C-11.66 12.67 -12.32 12.34 -13 12 C-2.63 0 -2.63 0 0 0 Z " fill="#FFE0E1" transform="translate(1056,287)"/>
<path d="M0 0 C0.66 0.33 1.32 0.66 2 1 C-1.63 4.63 -5.26 8.26 -9 12 C-9.66 11.67 -10.32 11.34 -11 11 C-7.62 6.86 -4.33 3.19 0 0 Z " fill="#FF2628" transform="translate(453,288)"/>
<path d="M0 0 C0.66 0 1.32 0 2 0 C0.59 3.22 -1.1 5.32 -3.62 7.75 C-4.57 8.67 -4.57 8.67 -5.54 9.61 C-6.02 10.07 -6.5 10.53 -7 11 C-7.66 10.67 -8.32 10.34 -9 10 C-7.55 8.33 -6.09 6.66 -4.62 5 C-3.81 4.07 -3 3.14 -2.16 2.19 C-1.45 1.47 -0.74 0.74 0 0 Z " fill="#FF2426" transform="translate(1082,287)"/>
<path d="M0 0 C0.66 0.33 1.32 0.66 2 1 C-0.31 3.64 -2.62 6.28 -5 9 C-5.33 8.34 -5.66 7.68 -6 7 C-4.02 4.69 -2.04 2.38 0 0 Z " fill="#FF2D2F" transform="translate(907,287)"/>
<path d="M0 0 C1.21 0.03 1.21 0.03 2.44 0.06 C2.77 0.72 3.1 1.38 3.44 2.06 C2.05 2.5 2.05 2.5 0.62 2.94 C-2.66 3.95 -2.66 3.95 -5.56 6.06 C-3.26 0.08 -3.26 0.08 0 0 Z " fill="#FFCFD0" transform="translate(328.5625,380.9375)"/>
<path d="M0 0 C0.66 0.33 1.32 0.66 2 1 C1.07 2.14 1.07 2.14 0.12 3.31 C-2.06 6 -2.06 6 -4 9 C-3.38 3.46 -3.38 3.46 -1.44 1.12 C-0.96 0.75 -0.49 0.38 0 0 Z " fill="#FF2A2C" transform="translate(864,283)"/>
</svg>
